<?xml version="1.0" standalone="no"?>
<!DOCTYPE svg PUBLIC "-//W3C//DTD SVG 20010904//EN"
 "http://www.w3.org/TR/2001/REC-SVG-20010904/DTD/svg10.dtd">
<svg version="1.0" xmlns="http://www.w3.org/2000/svg"
 width="500.000000pt" height="500.000000pt" viewBox="0 0 500.000000 500.000000"
 preserveAspectRatio="xMidYMid meet">

<g transform="translate(0.000000,500.000000) scale(0.100000,-0.100000)"
fill="#000000" stroke="none">
<path d="M250 2585 l0 -695 563 2 562 3 -557 2 -558 3 0 685 0 685 2240 0
2240 0 0 -685 0 -685 -557 -3 -558 -2 563 -3 562 -2 0 695 0 695 -2250 0
-2250 0 0 -695z"/>
<path d="M1830 2870 c-36 -3 -49 -8 -37 -12 13 -6 17 -20 17 -67 l0 -60 -30
10 c-41 15 -99 -14 -122 -61 -36 -71 -15 -176 41 -204 38 -20 61 -20 89 0 12
8 22 10 22 5 0 -7 24 -11 57 -11 48 0 54 2 40 13 -14 10 -17 38 -19 202 l-3
190 -55 -5z m-22 -249 c3 -110 -4 -131 -43 -131 -30 0 -45 37 -45 116 0 84 20
126 58 122 l27 -3 3 -104z"/>
<path d="M2023 2865 c-36 -15 -48 -34 -58 -87 -4 -22 -14 -39 -24 -41 -14 -4
-14 -5 2 -6 15 -1 17 -14 17 -121 0 -103 -2 -120 -17 -129 -13 -8 4 -10 67
-11 75 0 82 2 60 13 -24 12 -25 16 -28 130 l-3 118 38 -3 c46 -4 51 -17 52
-144 1 -71 5 -95 17 -105 24 -20 89 -17 113 5 19 17 21 17 21 3 0 -15 15 -17
128 -17 91 1 122 3 110 11 -16 9 -18 30 -18 202 l0 192 -54 -3 c-53 -4 -54 -4
-35 -23 17 -17 19 -35 19 -183 0 -172 -5 -192 -47 -184 -16 3 -18 17 -21 131
l-3 127 -56 0 c-54 0 -55 -1 -40 -18 13 -14 17 -39 17 -108 0 -101 -11 -128
-51 -122 -24 3 -24 4 -27 126 l-3 122 -79 0 -80 0 0 54 c0 45 4 58 22 70 28
20 5 21 -39 1z"/>
<path d="M2073 2844 c-16 -26 -16 -27 6 -45 43 -35 84 16 45 55 -21 22 -31 20
-51 -10z"/>
<path d="M2993 2859 c15 -9 17 -29 17 -189 0 -160 -2 -180 -17 -189 -14 -8 -1
-10 51 -11 55 0 67 3 58 12 -8 8 -12 48 -12 114 0 110 8 129 52 122 22 -3 23
-7 26 -113 2 -95 0 -111 -15 -122 -14 -11 9 -13 128 -13 103 1 139 4 127 11
-16 9 -18 26 -18 134 l0 125 -57 0 c-48 0 -54 -2 -40 -13 15 -11 17 -28 15
-127 -3 -104 -5 -115 -22 -118 -35 -7 -46 25 -46 128 0 116 -9 135 -68 135
-26 0 -48 -7 -61 -19 l-21 -19 0 81 0 82 -57 0 c-44 -1 -54 -3 -40 -11z"/>
<path d="M3312 2858 c-34 -34 9 -80 55 -59 19 9 24 18 21 39 -2 22 -9 28 -33
30 -17 2 -36 -3 -43 -10z"/>
<path d="M803 2829 c15 -9 17 -28 17 -171 0 -141 -2 -162 -17 -174 -16 -12
-11 -13 37 -13 43 0 50 2 32 9 -12 5 -25 16 -28 23 -2 7 -3 65 -2 128 l3 114
108 -138 c60 -75 115 -137 123 -137 12 0 14 30 14 169 0 163 1 169 23 184 21
15 20 16 -32 16 l-54 1 27 -25 c25 -23 26 -29 26 -120 0 -52 -3 -95 -7 -94 -5
0 -51 54 -103 119 l-95 120 -45 0 c-35 -1 -41 -3 -27 -11z"/>
<path d="M2650 2774 c0 -65 12 -79 23 -26 8 39 37 71 67 74 l25 3 3 -153 c3
-161 -3 -188 -40 -195 -13 -2 24 -4 82 -4 58 -1 96 2 85 4 -43 11 -45 19 -45
189 0 97 4 164 10 164 39 0 90 -58 90 -104 0 -9 5 -16 10 -16 6 0 10 28 10 65
l0 65 -160 0 -160 0 0 -66z"/>
<path d="M1234 2739 c-53 -15 -78 -52 -82 -123 -5 -79 14 -121 65 -143 49 -20
96 -10 127 28 32 38 34 60 3 31 -31 -29 -81 -29 -101 0 -9 12 -16 39 -16 60
l0 38 70 0 c63 0 70 2 70 19 0 40 -20 72 -55 86 -38 17 -38 17 -81 4z m60 -17
c2 -4 7 -24 11 -45 l7 -37 -41 0 c-37 0 -41 2 -41 26 0 36 17 64 40 64 10 0
21 -3 24 -8z"/>
<path d="M1484 2739 c-68 -19 -103 -99 -80 -187 20 -80 101 -114 166 -70 19
13 37 33 39 43 3 19 2 19 -16 3 -25 -23 -75 -23 -96 0 -9 10 -19 37 -23 60
l-7 42 77 0 c84 0 87 3 62 64 -13 31 -27 40 -76 51 -8 2 -29 -1 -46 -6z m60
-25 c3 -9 6 -29 6 -45 0 -27 -2 -29 -41 -29 -41 0 -41 0 -34 33 4 17 12 38 17
45 14 17 45 15 52 -4z"/>
<path d="M3590 2743 c-8 -3 -23 -12 -32 -21 -16 -14 -18 -13 -18 1 0 14 -11
17 -57 17 -54 0 -55 -1 -40 -18 25 -28 25 -227 0 -241 -14 -8 -1 -10 52 -11
54 0 66 3 57 12 -8 8 -12 48 -12 114 0 110 8 129 52 122 22 -3 23 -7 26 -113
2 -95 0 -111 -15 -122 -14 -11 -5 -13 55 -13 l72 0 -20 20 c-17 17 -20 33 -20
118 0 63 -4 104 -12 115 -14 18 -64 30 -88 20z"/>
<path d="M3795 2740 c-39 -12 -55 -35 -55 -80 0 -36 23 -70 48 -70 18 0 14
-15 -8 -35 -46 -42 -17 -75 73 -84 57 -6 62 -8 65 -32 2 -14 -4 -31 -12 -38
-22 -18 -77 -24 -110 -12 -26 10 -28 15 -23 46 3 19 2 35 -4 35 -11 0 -49 -37
-49 -48 0 -20 41 -43 86 -48 93 -11 177 32 177 91 0 45 -32 66 -107 72 -54 5
-66 9 -64 22 2 9 17 18 38 21 75 13 99 45 86 114 -5 25 -3 35 9 40 9 3 15 1
14 -7 -3 -25 1 -37 14 -37 23 0 37 21 26 42 -12 22 -38 23 -65 4 -10 -8 -23
-11 -29 -6 -17 14 -78 19 -110 10z m65 -26 c14 -36 12 -87 -4 -109 -23 -32
-46 -3 -46 59 0 71 31 102 50 50z"/>
<path d="M4060 2732 c-30 -14 -35 -23 -38 -55 -3 -35 1 -42 52 -89 59 -54 72
-89 39 -106 -15 -8 -63 0 -63 10 0 2 -7 21 -15 43 l-14 40 -1 -37 c0 -20 -2
-43 -5 -50 -6 -14 10 -17 107 -21 65 -2 107 59 78 113 -5 10 -32 35 -60 55
-40 29 -50 42 -50 66 0 25 4 29 28 29 28 0 62 -26 62 -48 0 -6 5 -14 10 -17 6
-4 10 12 10 42 0 30 -3 43 -9 35 -6 -11 -16 -11 -47 -3 -49 14 -43 14 -84 -7z"/>
<path d="M1780 2000 c0 -5 9 -10 20 -10 17 0 20 -7 20 -50 0 -27 5 -50 10 -50
6 0 10 23 10 50 0 38 4 50 15 50 8 0 15 5 15 10 0 6 -20 10 -45 10 -25 0 -45
-4 -45 -10z"/>
<path d="M1990 1950 c0 -33 4 -60 10 -60 6 0 10 11 10 25 0 21 5 25 30 25 25
0 30 -4 30 -25 0 -14 5 -25 10 -25 6 0 10 27 10 60 0 33 -4 60 -10 60 -5 0
-10 -11 -10 -25 0 -21 -5 -25 -30 -25 -25 0 -30 4 -30 25 0 14 -4 25 -10 25
-6 0 -10 -27 -10 -60z"/>
<path d="M2220 1950 l0 -60 40 0 c22 0 40 5 40 10 0 6 -13 10 -30 10 -20 0
-30 5 -30 15 0 9 9 15 25 15 14 0 25 5 25 10 0 6 -11 10 -25 10 -16 0 -25 6
-25 15 0 10 10 15 30 15 17 0 30 5 30 10 0 6 -18 10 -40 10 l-40 0 0 -60z"/>
<path d="M2420 1951 c0 -34 4 -61 10 -61 6 0 10 7 10 15 0 26 30 30 46 6 19
-27 39 -28 24 -1 -8 14 -7 25 2 40 20 31 -1 54 -51 58 l-41 3 0 -60z m77 23
c7 -18 -14 -35 -37 -31 -8 1 -16 12 -18 25 -3 18 1 22 23 22 14 0 28 -7 32
-16z"/>
<path d="M2640 1950 l0 -60 45 0 c25 0 45 5 45 10 0 6 -16 10 -35 10 -24 0
-35 5 -35 15 0 10 10 15 30 15 17 0 30 5 30 10 0 6 -13 10 -30 10 -20 0 -30 5
-30 15 0 10 11 15 35 15 19 0 35 5 35 10 0 6 -20 10 -45 10 l-45 0 0 -60z"/>
<path d="M2990 1950 c0 -33 4 -60 10 -60 6 0 10 27 10 60 0 33 -4 60 -10 60
-6 0 -10 -27 -10 -60z"/>
<path d="M3143 2004 c-24 -10 -14 -43 17 -59 42 -22 39 -39 -5 -32 -39 6 -48
-9 -11 -19 63 -15 90 37 34 64 -38 18 -36 36 3 28 22 -4 29 -2 27 7 -5 13 -44
19 -65 11z"/>
<path d="M1530 1720 l0 -60 45 0 c25 0 45 5 45 10 0 6 -16 10 -35 10 -24 0
-35 5 -35 15 0 10 10 15 30 15 17 0 30 5 30 10 0 6 -13 10 -30 10 -20 0 -30 5
-30 15 0 10 11 15 35 15 19 0 35 5 35 10 0 6 -20 10 -45 10 l-45 0 0 -60z"/>
<path d="M1741 1728 c34 -88 41 -88 77 0 17 42 18 52 6 52 -7 0 -14 -5 -14
-10 0 -6 -7 -27 -16 -48 l-16 -37 -16 44 c-10 24 -23 46 -30 49 -8 2 -6 -13 9
-50z"/>
<path d="M1950 1720 l0 -60 46 0 c27 0 43 4 39 10 -3 6 -19 10 -36 10 -19 0
-29 5 -29 15 0 10 10 15 30 15 17 0 30 5 30 10 0 6 -13 10 -30 10 -20 0 -30 5
-30 15 0 10 10 15 30 15 17 0 30 5 30 10 0 6 -18 10 -40 10 l-40 0 0 -60z"/>
<path d="M2160 1720 c0 -33 4 -60 10 -60 6 0 10 9 10 20 0 11 7 20 15 20 8 0
19 -9 25 -20 6 -11 15 -20 21 -20 6 0 6 7 -1 19 -7 13 -7 22 0 26 14 9 13 48
-2 63 -7 7 -27 12 -45 12 l-33 0 0 -60z m70 21 c0 -17 -18 -31 -41 -31 -5 0
-9 11 -9 25 0 20 5 25 25 25 18 0 25 -5 25 -19z"/>
<path d="M2380 1740 c11 -21 20 -48 20 -60 0 -11 5 -20 10 -20 6 0 10 7 10 15
0 9 9 33 20 55 22 44 24 50 12 50 -5 0 -14 -11 -20 -25 -6 -14 -15 -25 -20
-25 -5 0 -14 11 -20 25 -6 14 -16 25 -22 25 -6 0 -1 -18 10 -40z"/>
<path d="M2560 1770 c0 -5 9 -10 20 -10 17 0 20 -7 20 -50 0 -27 5 -50 10 -50
6 0 10 23 10 50 0 43 3 50 20 50 11 0 20 5 20 10 0 6 -22 10 -50 10 -27 0 -50
-4 -50 -10z"/>
<path d="M2770 1720 c0 -33 4 -60 10 -60 6 0 10 11 10 25 0 21 5 25 30 25 25
0 30 -4 30 -25 0 -14 5 -25 10 -25 6 0 10 27 10 60 0 33 -4 60 -10 60 -5 0
-10 -11 -10 -25 0 -21 -5 -25 -30 -25 -25 0 -30 4 -30 25 0 14 -4 25 -10 25
-6 0 -10 -27 -10 -60z"/>
<path d="M3000 1720 c0 -33 4 -60 10 -60 6 0 10 27 10 60 0 33 -4 60 -10 60
-6 0 -10 -27 -10 -60z"/>
<path d="M3140 1720 c0 -68 17 -82 22 -17 l3 42 30 -42 c42 -60 55 -56 55 17
0 68 -17 82 -22 18 l-3 -43 -30 42 c-42 60 -55 56 -55 -17z"/>
<path d="M3394 1772 c-41 -27 -35 -96 10 -108 40 -10 66 4 65 34 0 26 -1 26
-9 5 -6 -15 -18 -23 -34 -23 -33 0 -51 32 -35 61 9 17 17 20 45 16 35 -6 47 6
18 17 -21 8 -47 7 -60 -2z"/>
</g>
</svg>
